<svg fill="none" height="160" viewBox="0 0 160 160" width="160" xmlns="http://www.w3.org/2000/svg"><g fill="#000"><path d="m152.925 64.2094h-2.444c-3.457-9.204-13.947-9.7552-26.954-9.7552-1.754 0-3.56.0104-5.394.0104-1.837 0-3.64-.0104-5.394-.0104-12.9999 0-23.49.5512-26.9497 9.7552h-11.5855c-3.4598-9.204-13.9533-9.7552-26.9498-9.7552-1.7542 0-3.5568.0104-5.3907.0104-1.8373 0-3.64-.0104-5.3941-.0104-12.9965 0-23.49.5512-26.94976 9.7552h-2.444c-3.90692 0-7.07544 3.1685-7.07544 7.0754 0 3.907 3.16852 7.0755 7.07544 7.0755h1.8512c2.97786 15.4855 16.58446 27.1857 32.93666 27.1857s29.9554-11.7002 32.9333-27.1857h10.3999c2.9779 15.4855 16.5815 27.1857 32.9365 27.1857 16.363 0 29.966-11.7002 32.94-27.1857h1.852c3.906 0 7.075-3.1685 7.075-7.0755 0-3.9069-3.169-7.0754-7.075-7.0754zm-95.6455 24.7588h-30.8324c-.8528 0-1.6605 0-2.3885-3.5394h35.6095c-.728 3.5394-1.5358 3.5394-2.3886 3.5394zm-25.7052 3.5395h20.5781c-3.1027 0-6.5867 2.4648-10.2891 2.4648s-7.1898-2.4648-10.289-2.4648zm31.4391-10.6114h-42.3001c-.3502-3.5395-.631-2.6728-.8806-3.5395h44.0578c-.2496.8632-.5339 0-.8771 3.5395zm70.5396 7.0719h-30.839c-.853 0-1.661 0-2.389-3.5394h35.613c-.725 3.5394-1.532 3.5394-2.385 3.5394zm-25.709 3.5395h20.578c-3.099 0-6.586 2.4648-10.289 2.4648-3.702 0-7.19-2.4648-10.289-2.4648zm31.446-10.6114h-42.3103c-.3467-3.5395-.631-2.6728-.8736-3.5395h44.0579c-.25.8632-.531 0-.874 3.5395z"/><path d="m100.8 84.2154h-10.3273v-9.6061h10.3273zm-9.4606-.8666h8.5939v-7.8728h-8.5939z"/><path d="m105.206 92.4487h-10.3272v-9.606h10.3272zm-9.4605-.8666h8.5935v-7.8728h-8.5935z"/><path d="m116.546 99.6733h-10.328v-9.6061h10.328zm-9.458-.8667h8.594v-7.8727h-8.594z"/><path d="m130.845 99.6733h-10.327v-9.6061h10.327zm-9.457-.8667h8.594v-7.8727h-8.594z"/><path d="m139.873 91.8733h-10.328v-9.6061h10.328zm-9.461-.8666h8.594v-7.8728h-8.594z"/><path d="m145 83.7093h-10.327v-9.6061h10.327zm-9.461-.8667h8.594v-7.8727h-8.594z"/><path d="m24.1002 84.2154h-10.3272v-9.6061h10.3272zm-9.4605-.8666h8.5938v-7.8728h-8.5938z"/><path d="m28.5063 92.4487h-10.3272v-9.606h10.3272zm-9.4605-.8666h8.5938v-7.8728h-8.5938z"/><path d="m39.8458 99.6733h-10.3272v-9.6061h10.3272zm-9.4605-.8667h8.5938v-7.8727h-8.5938z"/><path d="m54.1457 99.6733h-10.3271v-9.6061h10.3271zm-9.4605-.8667h8.5939v-7.8727h-8.5939z"/><path d="m63.1728 91.8733h-10.3272v-9.6061h10.3272zm-9.4605-.8666h8.5938v-7.8728h-8.5938z"/><path d="m68.3 83.7093h-10.3272v-9.6061h10.3272zm-9.4605-.8667h8.5938v-7.8727h-8.5938z"/></g></svg>