<svg fill="none" height="128" viewBox="0 0 128 128" width="128" xmlns="http://www.w3.org/2000/svg" xmlns:xlink="http://www.w3.org/1999/xlink"><linearGradient id="a" gradientUnits="userSpaceOnUse" x1="18.7452" x2="109.255" y1="18.7452" y2="109.255"><stop offset="0" stop-color="#ff473e"/><stop offset="1" stop-color="#a01700"/></linearGradient><linearGradient id="b" gradientUnits="userSpaceOnUse" x1="12.809" x2="115.191" y1="64" y2="64"><stop offset="0" stop-color="#ffdc4a"/><stop offset=".523" stop-color="#ffb140"/><stop offset="1" stop-color="#ff8736"/></linearGradient><linearGradient id="c" gradientUnits="userSpaceOnUse" x1="29.5475" x2="98.4525" y1="64" y2="64"><stop offset="0" stop-color="#fff"/><stop offset="1" stop-color="#d5d9d8"/></linearGradient><linearGradient id="d" gradientUnits="userSpaceOnUse" x1="34.24" x2="93.76" y1="64" y2="64"><stop offset="0" stop-color="#ff8736"/><stop offset="1" stop-color="#ff473e"/></linearGradient><path d="m64 128c35.3462 0 64-28.6538 64-64s-28.6538-64-64-64-64 28.6538-64 64 28.6538 64 64 64z" fill="url(#a)"/><path d="m102.182 71.511 3.609-2.0837 9.4-5.4273-9.4-5.4272-3.825-2.208 2.674-3.5148 6.571-8.6392-10.767-1.3713-4.1345-.5265 1.0788-4.0255 2.8097-10.4847-10.4852 2.8092-4.2655 1.143-.595-4.3757-1.4623-10.7555-8.5835 6.6437-3.2955 2.551-2.0837-3.6092-5.4273-9.4003-5.4272 9.4003-2.208 3.8245-3.515-2.6735-8.6393-6.5713-1.3712 10.7675-.5265 4.1343-4.0255-1.0788-10.4848-2.8095 2.8095 10.4848 1.143 4.2655-4.3757.595-10.7555 1.4622 6.644 8.5835 2.551 3.2955-3.6093 2.0838-9.4005 5.4272 9.4003 5.4273 3.8245 2.208-2.6735 3.5147-6.5715 8.6393 10.7675 1.3712 4.1342.5265-1.0787 4.0255-2.8093 10.4855 10.4848-2.8097 4.2655-1.143.595 4.3757 1.4622 10.756 8.5835-6.644 3.2955-2.551 2.0838 3.609 5.4272 9.4 5.4273-9.4 2.208-3.825 3.515 2.674 8.6392 6.571 1.3713-10.767.5265-4.1345 4.0255 1.0788 10.4852 2.8097-2.8097-10.4852-1.143-4.2655 4.3757-.595 10.756-1.4623-6.645-8.5835z" fill="url(#b)"/><path d="m64 98.4525c19.0276 0 34.4525-15.4249 34.4525-34.4525s-15.4249-34.4525-34.4525-34.4525-34.4525 15.4249-34.4525 34.4525 15.4249 34.4525 34.4525 34.4525z" fill="url(#c)"/><path d="m64 93.76c16.436 0 29.76-13.324 29.76-29.76s-13.324-29.76-29.76-29.76-29.76 13.324-29.76 29.76 13.324 29.76 29.76 29.76z" fill="url(#d)"/></svg>